:FULLY-SPECIFIED
:FORCE-ALL-JOINTS-BE-3DOF
:DEGREES
1223
root -0.886635 14.8176 -17.8552 370.121 19.9796 361.744
lfemur 6.33722 -3.89128 -6.39273
ltibia 63.2348 0 0
lfoot 2.51524 0.360294 0
ltoes -36.1982 0 0
rfemur -60.2891 -10.3414 22.0429
rtibia 77.5143 0 0
rfoot -21.7723 -19.4552 0
rtoes -2.3344 0 0
lowerback 13.6894 1.32226 -3.47686
upperback -3.21882 1.14309 -0.35215
thorax -11.3348 0.746182 1.26678
lowerneck -0.617405 -9.27092 -10.288
upperneck -0.364454 -12.4174 10.7069
head 1.30986 -6.17813 4.49161
lclavicle -2.03399e-14 -2.2084e-14 0
lhumerus -70.2526 -33.7661 123.376
lradius 86.1697 0 0
lwrist 8.8327 0 0
lhand -27.7888 25.9694 0
lfingers 7.12502 0 0
lthumb -1.18295 101.356 0
rclavicle -2.03399e-14 -2.2084e-14 0
rhumerus 75.9728 -0.0673208 -18.149
rradius 94.2966 0 0
rwrist -8.70326 0 0
rhand -32.4489 -34.7005 0
rfingers 7.12502 0 0
rthumb -5.67739 -64.7705 0
1224
root -0.895724 14.8304 -17.6534 370.241 19.3144 361.498
lfemur 5.43936 -3.82538 -6.60465
ltibia 63.8921 0 0
lfoot 3.12653 -0.324669 0
ltoes -35.6964 0 0
rfemur -59.6326 -9.93959 22.4808
rtibia 77.2872 0 0
rfoot -21.827 -20.056 0
rtoes -2.45482 0 0
lowerback 13.5112 1.29438 -3.23172
upperback -3.28004 1.15847 -0.301739
thorax -11.2898 0.740713 1.18642
lowerneck -0.705054 -9.09749 -10.1581
upperneck -0.32644 -12.1766 10.6133
head 1.29689 -6.05624 4.45678
lclavicle -2.11331e-14 -2.17327e-14 0
lhumerus -68.7908 -34.1587 123.339
lradius 85.7367 0 0
lwrist 7.53687 0 0
lhand -28.1484 25.5811 0
lfingers 7.12502 0 0
lthumb -1.53016 97.7368 0
rclavicle -2.11331e-14 -2.17327e-14 0
rhumerus 75.2517 0.653433 -18.7019
rradius 94.3382 0 0
rwrist -9.55299 0 0
rhand -32.0197 -34.7851 0
rfingers 7.12502 0 0
rthumb -5.26326 -64.8506 0
1225
root -0.904594 14.8437 -17.4321 370.359 18.614 361.235
lfemur 4.44533 -3.72017 -6.8421
ltibia 64.5024 0 0
lfoot 3.74246 -0.974505 0
ltoes -35.1057 0 0
rfemur -58.8713 -9.53636 22.9296
rtibia 77.0123 0 0
rfoot -21.8709 -20.6587 0
rtoes -2.6328 0 0
lowerback 13.3218 1.26974 -2.97765
upperback -3.34419 1.17926 -0.246284
thorax -11.2412 0.737669 1.10597
lowerneck -0.799335 -8.91563 -10.0222
upperneck -0.27516 -11.9248 10.5146
head 1.28769 -5.92866 4.41976
lclavicle -2.19422e-14 -2.13508e-14 0
lhumerus -67.1416 -34.5409 123.208
lradius 85.3227 0 0
lwrist 6.339 0 0
lhand -28.5037 25.2469 0
lfingers 7.12502 0 0
lthumb -1.87322 93.5342 0
rclavicle -2.19422e-14 -2.13508e-14 0
rhumerus 74.372 1.43696 -19.3718
rradius 94.3703 0 0
rwrist -10.4554 0 0
rhand -31.5482 -34.8528 0
rfingers 7.12502 0 0
rthumb -4.80836 -64.9119 0
1226
root -0.913257 14.8574 -17.1903 370.473 17.877 360.956
lfemur 3.35077 -3.57377 -7.10594
ltibia 65.0622 0 0
lfoot 4.36381 -1.58762 0
ltoes -34.4226 0 0
rfemur -58.0004 -9.13204 23.3901
rtibia 76.6882 0 0
rfoot -21.9044 -21.2638 0
rtoes -2.87156 0 0
lowerback 13.1206 1.24847 -2.71413
upperback -3.41148 1.20566 -0.185511
thorax -11.189 0.737152 1.02542
lowerneck -0.900514 -8.72495 -9.88002
upperneck -0.210225 -11.6615 10.4108
head 1.28238 -5.79515 4.38047
lclavicle -2.27704e-14 -2.09383e-14 0
lhumerus -65.296 -34.9126 122.978
lradius 84.9284 0 0
lwrist 5.24484 0 0
lhand -28.8548 24.9712 0
lfingers 7.12502 0 0
lthumb -2.2121 88.7217 0
rclavicle -2.27704e-14 -2.09383e-14 0
rhumerus 73.3259 2.28638 -20.164
rradius 94.3923 0 0
rwrist -11.4135 0 0
rhand -31.0322 -34.9023 0
rfingers 7.12502 0 0
rthumb -4.31054 -64.9531 0
1227
root -0.921727 14.8718 -16.9268 370.586 17.1017 360.66
lfemur 2.15131 -3.38433 -7.39705
ltibia 65.5682 0 0
lfoot 4.99139 -2.16244 0
ltoes -33.6433 0 0
rfemur -57.0153 -8.72699 23.8631
rtibia 76.3131 0 0
rfoot -21.9277 -21.8717 0
rtoes -3.17433 0 0
lowerback 12.9074 1.23069 -2.44065
upperback -3.48214 1.23791 -0.119145
thorax -11.133 0.739265 0.944747
lowerneck -1.00886 -8.52508 -9.73117
upperneck -0.131245 -11.386 10.3016
head 1.28104 -5.65544 4.33881
lclavicle -2.36208e-14 -2.04955e-14 0
lhumerus -63.2451 -35.2734 122.644
lradius 84.5548 0 0
lwrist 4.26014 0 0
lhand -29.2015 24.7584 0
lfingers 7.12502 0 0
lthumb -2.54681 83.2724 0
rclavicle -2.36208e-14 -2.04955e-14 0
rhumerus 72.1053 3.20483 -21.0842
rradius 94.4038 0 0
rwrist -12.4303 0 0
rhand -30.4694 -34.9321 0
rfingers 7.12502 0 0
rthumb -3.76765 -64.9726 0
1228
root -0.930015 14.8867 -16.6406 370.697 16.2868 360.345
lfemur 0.842586 -3.14997 -7.71631
ltibia 66.0169 0 0
lfoot 5.62598 -2.69736 0
ltoes -32.7643 0 0
rfemur -55.911 -8.32158 24.3494
rtibia 75.8855 0 0
rfoot -21.9413 -22.4827 0
rtoes -3.54432 0 0
lowerback 12.6817 1.21655 -2.15669
upperback -3.55639 1.27621 -0.0469104
thorax -11.0734 0.744108 0.863945
lowerneck -1.12463 -8.31562 -9.57536
upperneck -0.0378323 -11.0981 10.1867
head 1.28378 -5.50928 4.29469
lclavicle -2.44965e-14 -2.00226e-14 0
lhumerus -60.9798 -35.6229 122.201
lradius 84.2027 0 0
lwrist 3.39063 0 0
lhand -29.5438 24.613 0
lfingers 7.12502 0 0
lthumb -2.87733 77.1596 0
rclavicle -2.44965e-14 -2.00226e-14 0
rhumerus 70.7025 4.19543 -22.1379
rradius 94.4042 0 0
rwrist -13.5088 0 0
rhand -29.8577 -34.9409 0
rfingers 7.12502 0 0
rthumb -3.17753 -64.9688 0
1229
root -0.938135 14.9023 -16.3306 370.806 15.4307 360.011
lfemur -0.579774 -2.86883 -8.0646
ltibia 66.405 0 0
lfoot 6.26839 -3.19079 0
ltoes -31.7818 0 0
rfemur -54.6829 -7.91615 24.8499
rtibia 75.4037 0 0
rfoot -21.9456 -23.0972 0
rtoes -3.98477 0 0
lowerback 12.4433 1.20618 -1.86173
upperback -3.63446 1.32078 0.031468
thorax -11.0101 0.751785 0.782993
lowerneck -1.24811 -8.09621 -9.41228
upperneck 0.070403 -10.797 10.0659
head 1.2907 -5.35639 4.248
lclavicle -2.54006e-14 -1.95198e-14 0
lhumerus -58.4913 -35.9611 121.645
lradius 83.8729 0 0
lwrist 2.64205 0 0
lhand -29.8819 24.5394 0
lfingers 7.12502 0 0
lthumb -3.20365 70.3562 0
rclavicle -2.54006e-14 -1.95198e-14 0
rhumerus 69.1095 5.26131 -23.3307
rradius 94.3933 0 0
rwrist -14.652 0 0
rhand -29.1948 -34.9271 0
rfingers 7.12502 0 0
rthumb -2.53803 -64.9404 0
1230
root -0.946098 14.9184 -15.9958 370.913 14.5319 359.657
lfemur -2.12013 -2.53904 -8.44279
ltibia 66.7291 0 0
lfoot 6.91942 -3.64115 0
ltoes -30.6922 0 0
rfemur -53.3262 -7.51109 25.3654
rtibia 74.8661 0 0
rfoot -21.9408 -23.7156 0
rtoes -4.49888 0 0
lowerback 12.1915 1.19969 -1.55525
upperback -3.71656 1.37183 0.116265
thorax -10.943 0.762396 0.701875
lowerneck -1.37955 -7.86645 -9.24161
upperneck 0.193849 -10.4824 9.93903
head 1.3019 -5.19652 4.19866
lclavicle -2.63362e-14 -1.89871e-14 0
lhumerus -55.7704 -36.2874 120.97
lradius 83.5663 0 0
lwrist 2.02015 0 0
lhand -30.2156 24.5422 0
lfingers 7.12502 0 0
lthumb -3.52578 62.8356 0
rclavicle -2.63362e-14 -1.89871e-14 0
rhumerus 67.3185 6.40559 -24.6681
rradius 94.3704 0 0
rwrist -15.8629 0 0
rhand -28.4784 -34.8895 0
rfingers 7.12502 0 0
rthumb -1.84701 -64.8857 0
1231
root -0.953919 14.9353 -15.635 371.02 13.5888 359.283
lfemur -3.78286 -2.15874 -8.85175
ltibia 66.9857 0 0
lfoot 7.57986 -4.04685 0
ltoes -29.4918 0 0
rfemur -51.8362 -7.10674 25.8968
rtibia 74.2712 0 0
rfoot -21.9274 -24.3383 0
rtoes -5.08988 0 0
lowerback 11.9262 1.19723 -1.23674
upperback -3.80293 1.42959 0.207756
thorax -10.8723 0.776045 0.620577
lowerneck -1.51922 -7.62598 -9.06303
upperneck 0.332896 -10.1536 9.80585
head 1.31749 -5.02942 4.14657
lclavicle -2.73065e-14 -1.84249e-14 0
lhumerus -52.8082 -36.6017 120.172
lradius 83.2836 0 0
lwrist 1.53065 0 0
lhand -30.5449 24.6257 0
lfingers 7.12502 0 0
lthumb -3.84369 54.5707 0
rclavicle -2.73065e-14 -1.84249e-14 0
rhumerus 65.3214 7.63141 -26.1557
rradius 94.3351 0 0
rwrist -17.1445 0 0
rhand -27.7064 -34.8265 0
rfingers 7.12502 0 0
rthumb -1.1023 -64.8034 0
1232
root -0.960621 14.952 -15.2727 371.126 12.6279 358.899
lfemur -5.52176 -1.73777 -9.27865
ltibia 67.1652 0 0
lfoot 8.23278 -4.39086 0
ltoes -28.21 0 0
rfemur -50.2489 -6.71827 26.4305
rtibia 73.6426 0 0
rfoot -21.9169 -24.9502 0
rtoes -5.74939 0 0
lowerback 11.6536 1.20083 -0.914523
upperback -3.89062 1.49511 0.302256
thorax -10.799 0.79352 0.539304
lowerneck -1.66068 -7.38296 -8.88256
upperneck 0.478747 -9.82214 9.67243
head 1.33559 -4.86083 4.094
lclavicle -2.82927e-14 -1.78418e-14 0
lhumerus -49.7014 -36.8734 119.265
lradius 83.0283 0 0
lwrist 1.19736 0 0
lhand -30.8595 24.7673 0
lfingers 7.12502 0 0
lthumb -4.14734 45.9408 0
rclavicle -2.82927e-14 -1.78418e-14 0
rhumerus 63.1865 8.88848 -27.7401
rradius 94.2803 0 0
rwrist -18.4367 0 0
rhand -26.9145 -34.7464 0
rfingers 7.12502 0 0
rthumb -0.338482 -64.7021 0
1233
root -0.965292 14.9676 -14.933 371.23 11.6774 358.518
lfemur -7.2855 -1.28837 -9.70977
ltibia 67.2628 0 0
lfoot 8.86032 -4.65894 0
ltoes -26.881 0 0
rfemur -48.6065 -6.35984 26.9521
rtibia 73.0051 0 0
rfoot -21.9191 -25.5358 0
rtoes -6.46425 0 0
lowerback 11.3805 1.21217 -0.597545
upperback -3.97648 1.56894 0.395869
thorax -10.7243 0.815364 0.458462
lowerneck -1.79743 -7.14583 -8.70645
upperneck 0.622634 -9.49968 9.54486
head 1.35433 -4.69667 4.04323
lclavicle -2.92718e-14 -1.72467e-14 0
lhumerus -46.5558 -37.0744 118.271
lradius 82.803 0 0
lwrist 1.03544 0 0
lhand -31.1491 24.9407 0
lfingers 7.12502 0 0
lthumb -4.42692 37.3423 0
rclavicle -2.92718e-14 -1.72467e-14 0
rhumerus 60.9902 10.1245 -29.3623
rradius 94.2002 0 0
rwrist -19.6784 0 0
rhand -26.1398 -34.6584 0
rfingers 7.12502 0 0
rthumb 0.408729 -64.5919 0
1234
root -0.968039 14.9823 -14.6147 371.333 10.7382 358.14
lfemur -9.07078 -0.812215 -10.1447
ltibia 67.282 0 0
lfoot 9.46186 -4.85367 0
ltoes -25.5082 0 0
rfemur -46.9138 -6.03033 27.4608
rtibia 72.359 0 0
rfoot -21.9322 -26.0946 0
rtoes -7.23052 0 0
lowerback 11.1074 1.23082 -0.28621
upperback -4.06042 1.65049 0.488552
thorax -10.6483 0.841313 0.37833
lowerneck -1.92967 -6.9146 -8.53476
upperneck 0.76499 -9.18621 9.42292
head 1.37386 -4.53694 3.99422
lclavicle -3.024e-14 -1.66404e-14 0
lhumerus -43.3764 -37.2087 117.195
lradius 82.6075 0 0
lwrist 1.03771 0 0
lhand -31.4142 25.1448 0
lfingers 7.12502 0 0
lthumb -4.68279 28.774 0
rclavicle -3.024e-14 -1.66404e-14 0
rhumerus 58.7371 11.3396 -31.0196
rradius 94.0965 0 0
rwrist -20.8711 0 0
rhand -25.3819 -34.563 0
rfingers 7.12502 0 0
rthumb 1.13975 -64.4732 0
1235
root -0.968967 14.9961 -14.3165 371.432 9.81107 357.766
lfemur -10.8743 -0.310999 -10.583
ltibia 67.2265 0 0
lfoot 10.0368 -4.97764 0
ltoes -24.0952 0 0
rfemur -45.1751 -5.72862 27.9559
rtibia 71.7045 0 0
rfoot -21.9541 -26.6263 0
rtoes -8.04423 0 0
lowerback 10.8346 1.25636 0.019077
upperback -4.14237 1.73919 0.580264
thorax -10.5712 0.871101 0.299192
lowerneck -2.0576 -6.68931 -8.36755
upperneck 0.906245 -8.88171 9.30639
head 1.39428 -4.38163 3.94691
lclavicle -3.11938e-14 -1.60235e-14 0
lhumerus -40.168 -37.2798 116.042
lradius 82.4414 0 0
lwrist 1.19696 0 0
lhand -31.6551 25.3785 0
lfingers 7.12502 0 0
lthumb -4.9153 20.235 0
rclavicle -3.11938e-14 -1.60235e-14 0
rhumerus 56.4318 12.5337 -32.7094
rradius 93.9708 0 0
rwrist -22.0164 0 0
rhand -24.6402 -34.4603 0
rfingers 7.12502 0 0
rthumb 1.85502 -64.3463 0
1236
root -0.968184 15.0089 -14.0369 371.529 8.8971 357.395
lfemur -12.6927 0.21359 -11.0243
ltibia 67.1002 0 0
lfoot 10.5845 -5.03342 0
ltoes -22.6453 0 0
rfemur -43.3952 -5.45359 28.4367
rtibia 71.0416 0 0
rfoot -21.9828 -27.1306 0
rtoes -8.90144 0 0
lowerback 10.5625 1.28837 0.317912
upperback -4.22224 1.83446 0.670963
thorax -10.493 0.904461 0.221327
lowerneck -2.18143 -6.46995 -8.20485
upperneck 1.04683 -8.58616 9.19507
head 1.41573 -4.23075 3.90123
lclavicle -3.21295e-14 -1.53965e-14 0
lhumerus -36.9355 -37.2916 114.818
lradius 82.3045 0 0
lwrist 1.50602 0 0
lhand -31.8722 25.6407 0
lfingers 7.12502 0 0
lthumb -5.12483 11.7241 0
rclavicle -3.21295e-14 -1.53965e-14 0
rhumerus 54.0788 13.7071 -34.4289
rradius 93.8247 0 0
rwrist -23.1156 0 0
rhand -23.9145 -34.3509 0
rfingers 7.12502 0 0
rthumb 2.55494 -64.2117 0
